Coordinates
version=1
nRows=13
nColumns=40
inDegrees=yes

Units are S.I. units (second, meters, Newtons, ...)
Angles are in degrees.

endheader
time	pelvis_tilt	pelvis_list	pelvis_rotation	pelvis_tx	pelvis_ty	pelvis_tz	hip_flexion_r	hip_adduction_r	hip_rotation_r	knee_angle_r	knee_angle_r_beta	ankle_angle_r	subtalar_angle_r	mtp_angle_r	hip_flexion_l	hip_adduction_l	hip_rotation_l	knee_angle_l	knee_angle_l_beta	ankle_angle_l	subtalar_angle_l	mtp_angle_l	lumbar_extension	lumbar_bending	lumbar_rotation	arm_flex_r	arm_add_r	arm_rot_r	elbow_flex_r	pro_sup_r	wrist_flex_r	wrist_dev_r	arm_flex_l	arm_add_l	arm_rot_l	elbow_flex_l	pro_sup_l	wrist_flex_l	wrist_dev_l
      1.62000000	     -0.88630097	      2.07549963	     -0.91134449	      0.79161795	      0.95366182	      1.09298832	     -3.70512469	     -1.07576938	    -18.58009141	    -12.97135799	     -0.22639291	      9.12388022	      2.59115044	    -13.02864449	     21.29313230	      3.77306335	     26.94010082	    -11.11186424	     -0.19393862	      0.32097544	      5.76169731	     12.20575288	     -2.92442019	     -4.19367542	      8.05544750	     11.12020170	    -14.36051500	     -8.45844286	     29.89246645	     89.95437384	      0.00000000	      0.00000000	    -16.82341045	     12.10717957	     16.94372660	      9.69259621	     89.95437384	      0.00000000	      0.00000000
      1.63000000	     -0.79596515	      2.28007701	     -1.19722778	      0.80038887	      0.95271145	      1.09245591	     -4.30864221	     -1.45481465	    -18.70436404	    -13.14720485	     -0.22946201	      9.50196821	      2.97845076	    -13.48173147	     21.34307802	      3.47277479	     27.88519764	     -9.72961204	     -0.16981376	     -0.81687939	      4.34440194	     11.99154950	     -3.02925673	     -4.45644911	      8.37434344	     11.60003465	    -14.28028353	     -8.78799647	     29.96903807	     89.95437384	      0.00000000	      0.00000000	    -17.25105743	     12.08756469	     17.68461301	      9.36740423	     89.95437384	      0.00000000	      0.00000000
      1.64000000	     -0.90173232	      2.15215961	     -1.32714765	      0.80892200	      0.95125165	      1.09211694	     -4.71199596	     -1.37981269	    -18.83713344	    -13.24455329	     -0.23116106	      9.60709325	      2.91532251	    -13.43903240	     21.98195213	      3.59154966	     27.96536723	     -9.38045963	     -0.16371991	     -0.81387911	      4.28088646	     11.91661314	     -2.91011712	     -4.35342070	      8.54861595	     11.93731896	    -14.24953774	     -8.79185152	     30.23311378	     89.95437384	      0.00000000	      0.00000000	    -17.77900562	     12.10435693	     17.68473142	      9.17978635	     89.95437384	      0.00000000	      0.00000000
      1.65000000	     -1.11042103	      1.99681974	     -1.40581501	      0.81765934	      0.94982626	      1.09129383	     -5.08460002	     -1.26704970	    -18.67532032	    -13.25687555	     -0.23137613	     10.05874305	      3.12121209	    -13.64969546	     22.22170655	      3.50866734	     27.92261317	     -8.00406566	     -0.13969730	     -1.72263314	      3.46383359	     12.00687503	     -2.63549863	     -4.18277900	      8.89912198	     12.12809543	    -14.25399996	     -9.19034945	     30.27600559	     89.95437384	      0.00000000	      0.00000000	    -18.10162013	     12.10799614	     17.99096535	      8.90867220	     89.95437384	      0.00000000	      0.00000000
      1.66000000	     -0.87894369	      2.25778677	     -1.63856805	      0.82701445	      0.94902788	      1.09029583	     -5.86084259	     -1.78509433	    -19.07108784	    -13.46340710	     -0.23498078	     10.32309016	      3.65896904	    -14.05046575	     22.01600563	      3.05059933	     28.47303161	     -7.21008071	     -0.12583965	     -2.14615665	      3.37550055	     11.57441572	     -2.84031532	     -4.47862154	      9.16359263	     12.40656661	    -14.08735234	     -9.78381558	     30.38613494	     89.95437384	      0.00000000	      0.00000000	    -18.39261613	     12.06996465	     18.55572070	      8.58205642	     89.95437384	      0.00000000	      0.00000000
      1.67000000	     -0.90885102	      2.19216941	     -1.69482724	      0.83620336	      0.94782385	      1.08946619	     -6.38959355	     -1.83053293	    -19.23222939	    -13.61406850	     -0.23761032	     10.60015772	      3.90946936	    -14.23499597	     22.23454617	      2.97004542	     28.40993162	     -6.93796478	     -0.12109033	     -2.11848457	      3.53586360	     11.23169285	     -2.74689174	     -4.44271007	      9.39395735	     12.52751893	    -13.94899184	    -10.29354697	     30.45711471	     89.95437384	      0.00000000	      0.00000000	    -18.65383365	     12.12310503	     18.73994672	      8.38657273	     89.95437384	      0.00000000	      0.00000000
      1.68000000	     -1.02029777	      2.11484963	     -1.74236502	      0.84527366	      0.94632000	      1.08846528	     -6.73146630	     -1.87927322	    -19.14544798	    -13.96064869	     -0.24365929	     10.51941853	      3.79475799	    -14.06513661	     22.63937526	      2.95585952	     28.23905842	     -7.17014471	     -0.12514263	     -2.09050220	      3.56093151	     11.07134979	     -2.58414695	     -4.38129668	      9.48410152	     12.59348632	    -13.89787779	    -10.28877008	     30.70809718	     89.95437384	      0.00000000	      0.00000000	    -19.08555439	     12.13426464	     18.69215683	      8.41674855	     89.95437384	      0.00000000	      0.00000000
      1.69000000	     -0.85343321	      2.13310247	     -1.84018314	      0.85476912	      0.94545822	      1.08716396	     -7.53262069	     -2.06282621	    -19.26250721	    -14.00457150	     -0.24442588	     11.01426466	      3.87523560	    -14.19069644	     22.66638217	      2.81556915	     28.58793590	     -7.49989680	     -0.13089789	     -1.93884564	      4.29196413	     10.92058142	     -2.67268840	     -4.37921212	      9.73870884	     12.66509225	    -13.77177487	    -10.73567562	     30.69001064	     89.95437384	      0.00000000	      0.00000000	    -19.06290877	     12.13957924	     18.62848490	      7.82853331	     89.95437384	      0.00000000	      0.00000000
      1.70000000	     -0.81930052	      2.14977051	     -1.89476488	      0.86436731	      0.94432298	      1.08573043	     -8.09506360	     -2.28202210	    -19.33131147	    -14.26663366	     -0.24899973	     11.07493555	      3.92738021	    -14.13164545	     22.76736213	      2.65263505	     28.49821076	     -7.96962355	     -0.13909617	     -1.84653379	      4.71691150	     10.74902049	     -2.62279397	     -4.39106823	      9.90905227	     12.59593814	    -13.66005224	    -11.02043810	     30.79768212	     89.95437384	      0.00000000	      0.00000000	    -19.17277139	     12.14932340	     18.53276172	      7.51178324	     89.95437384	      0.00000000	      0.00000000
      1.71000000	     -0.68265707	      2.22277715	     -1.90703779	      0.87406273	      0.94331261	      1.08404276	     -8.75755036	     -2.60806474	    -19.48921305	    -14.59668196	     -0.25476016	     11.10655951	      4.10121336	    -14.09219638	     22.72905482	      2.40351778	     28.42504450	     -8.61451892	     -0.15035172	     -1.71178077	      5.31165753	     10.56908558	     -2.68687565	     -4.45093778	     10.03874137	     12.48068730	    -13.49279162	    -11.44017930	     30.95272844	     89.95437384	      0.00000000	      0.00000000	    -19.20322051	     12.16626097	     18.38281485	      7.24804310	     89.95437384	      0.00000000	      0.00000000
      1.72000000	     -0.82436236	      2.16867790	     -1.92355284	      0.88385287	      0.94187343	      1.08224884	     -9.03913309	     -2.77512172	    -19.29332938	    -15.08210127	     -0.26323233	     10.90965632	      3.98316394	    -13.85196546	     22.85459500	      2.27075545	     28.04474723	     -9.13373274	     -0.15941371	     -1.76988566	      5.28886837	     10.38228347	     -2.39653642	     -4.34737774	     10.11721970	     12.24789157	    -13.40904652	    -11.44501333	     31.14470473	     89.95437384	      0.00000000	      0.00000000	    -19.51870646	     12.09015814	     18.32421926	      7.50228009	     89.95437384	      0.00000000	      0.00000000
      1.73000000	     -0.47844278	      2.41541861	     -1.88046194	      0.89394898	      0.94123491	      1.08002944	     -9.99815256	     -3.35490398	    -19.79498901	    -15.33421844	     -0.26763260	     11.05620046	      4.39459537	    -13.90061651	     22.55963849	      1.81199034	     28.10553400	    -10.12300714	     -0.17667980	     -1.39878103	      6.32656868	     10.20166418	     -2.67327711	     -4.58827939	     10.23637854	     12.07930833	    -13.20950930	    -12.11474667	     31.17069897	     89.95437384	      0.00000000	      0.00000000	    -19.26419148	     12.12896326	     18.16610014	      6.95196353	     89.95437384	      0.00000000	      0.00000000
      1.74000000	     -0.63786387	      2.33945842	     -1.86791196	      0.90403540	      0.93973793	      1.07790190	    -10.25717807	     -3.51464986	    -19.59897817	    -15.84663666	     -0.27657599	     10.84236279	      4.27508008	    -13.65736714	     22.55143228	      1.64884230	     27.69437099	    -10.63831676	     -0.18567365	     -1.44287780	      6.25026160	     10.01551949	     -2.32491832	     -4.45326461	     10.31624776	     11.71945799	    -13.11954003	    -12.10366138	     31.30190291	     89.95437384	      0.00000000	      0.00000000	    -19.53169015	     12.04375602	     18.11786514	      7.25433305	     89.95437384	      0.00000000	      0.00000000
